External Loads File
version=1
nRows=47
nColumns=13
Range=5.000000e-03-10 seconds
endheader
time 	forceRightX 	forceRightY 	forceRightZ 	pointRightX 	pointRightY 	pointRightZ 	forceLeftX 	forceLeftY 	forceLeftZ 	pointLeftX 	pointLeftY 	pointLeftZ 		
0.005000 47.357682 205.023594 -0.000000 0.332550 0.485278 -0.135070 46.290000 208.743713 -0.000000 0.206485 0.165972 -0.375689
0.010000 46.852952 205.078804 -0.000000 0.335140 0.484468 -0.134943 46.195708 207.815364 -0.000000 0.203878 0.166961 -0.375788
0.015000 46.193787 205.171776 -0.000000 0.337688 0.483587 -0.134794 46.002066 206.876907 -0.000000 0.201378 0.168064 -0.375844
0.020000 45.417230 205.253649 -0.000000 0.340252 0.482674 -0.134739 45.802619 205.913907 -0.000000 0.198909 0.169170 -0.375935
0.025000 44.541728 205.280664 -0.000000 0.342760 0.481647 -0.134576 45.652979 204.915458 -0.000000 0.196456 0.170399 -0.376049
0.030000 43.541225 205.219449 -0.000000 0.345244 0.480557 -0.134491 45.536639 203.875677 -0.000000 0.194036 0.171595 -0.376079
0.035000 42.446034 205.049420 -0.000000 0.347687 0.479472 -0.134442 45.468476 202.767291 -0.000000 0.191686 0.172923 -0.376164
0.040000 41.396534 204.755157 -0.000000 0.350167 0.478276 -0.134351 45.557511 201.539684 -0.000000 0.189311 0.174262 -0.376177
0.045000 40.335940 204.363051 -0.000000 0.352588 0.476992 -0.134230 45.712287 200.200939 -0.000000 0.187034 0.175666 -0.376203
0.050000 39.374865 203.860936 -0.000000 0.355001 0.475692 -0.134205 45.998771 198.733939 -0.000000 0.184747 0.177127 -0.376267
0.055000 38.524547 203.267215 -0.000000 0.357377 0.474355 -0.134135 46.379557 197.146871 -0.000000 0.182485 0.178650 -0.376320
0.060000 37.830409 202.599269 -0.000000 0.359738 0.472918 -0.134036 46.861419 195.438428 -0.000000 0.180204 0.180184 -0.376345
0.065000 37.225657 201.889348 -0.000000 0.362086 0.471377 -0.133974 47.364009 193.628689 -0.000000 0.178014 0.181766 -0.376387
0.070000 36.660757 201.164773 -0.000000 0.364398 0.469843 -0.133977 47.837819 191.736164 -0.000000 0.175883 0.183473 -0.376463
0.075000 36.133231 200.442920 -0.000000 0.366727 0.468252 -0.133915 48.282992 189.778677 -0.000000 0.173745 0.185205 -0.376531
0.080000 35.468233 199.760715 -0.000000 0.368922 0.466601 -0.133925 48.548846 187.829086 -0.000000 0.171715 0.186976 -0.376557
0.085000 34.805070 199.092522 -0.000000 0.371236 0.464886 -0.133758 48.801288 185.898605 -0.000000 0.169670 0.188796 -0.376587
0.090000 34.005346 198.474576 -0.000000 0.373428 0.463079 -0.133693 48.937949 184.073866 -0.000000 0.167677 0.190703 -0.376657
0.095000 33.099647 197.930114 -0.000000 0.375613 0.461303 -0.133682 48.966878 182.398631 -0.000000 0.165689 0.192595 -0.376703
0.100000 32.191904 197.473887 -0.000000 0.377699 0.459376 -0.133569 48.918499 180.894665 -0.000000 0.163725 0.194517 -0.376766
0.105000 31.262136 197.127415 -0.000000 0.379666 0.457467 -0.133405 48.723218 179.609394 -0.000000 0.161869 0.196485 -0.376813
0.110000 30.464957 196.858465 -0.000000 0.381531 0.455477 -0.133177 48.537240 178.522882 -0.000000 0.160015 0.198536 -0.376846
0.115000 29.938297 196.616725 -0.000000 0.383792 0.453550 -0.133402 48.560656 177.574194 -0.000000 0.158185 0.200630 -0.376872
0.120000 29.412944 196.407936 -0.000000 0.385759 0.451483 -0.133313 48.642283 176.765194 -0.000000 0.156418 0.202771 -0.376960
0.125000 28.898299 196.202029 -0.000000 0.387660 0.449420 -0.133281 48.867665 176.017652 -0.000000 0.154662 0.204913 -0.376985
0.130000 28.596187 195.959658 -0.000000 0.389567 0.446951 -0.133287 49.468049 175.210663 -0.000000 0.152877 0.207125 -0.377022
0.135000 28.181485 195.747299 -0.000000 0.391423 0.444689 -0.133139 50.172799 174.366847 -0.000000 0.151163 0.209437 -0.377069
0.140000 27.696014 195.603278 -0.000000 0.393211 0.442426 -0.133043 51.004437 173.434956 -0.000000 0.149505 0.211755 -0.377105
0.145000 27.226735 195.564393 -0.000000 0.395041 0.440156 -0.133019 51.992205 172.377012 -0.000000 0.147860 0.214096 -0.377177
0.150000 26.791490 195.655244 -0.000000 0.396767 0.437777 -0.132988 53.100803 171.203301 -0.000000 0.146241 0.216509 -0.377228
0.155000 26.340795 195.875983 -0.000000 0.398382 0.435309 -0.132862 54.267497 169.964098 -0.000000 0.144648 0.218919 -0.377259
0.160000 25.946474 196.181598 -0.000000 0.400064 0.432789 -0.132901 55.562123 168.679599 -0.000000 0.143136 0.221473 -0.377256
0.165000 25.387628 196.548941 -0.000000 0.401624 0.430343 -0.132783 56.790762 167.447004 -0.000000 0.141649 0.223966 -0.377313
0.170000 24.823843 196.899236 -0.000000 0.403207 0.427862 -0.132720 58.047547 166.248959 -0.000000 0.140205 0.226519 -0.377388
0.175000 24.275044 197.174736 -0.000000 0.404763 0.425318 -0.132772 59.272551 165.090454 -0.000000 0.138811 0.229134 -0.377413
0.180000 23.681145 197.338123 -0.000000 0.406190 0.422661 -0.132719 60.343515 163.976558 -0.000000 0.137452 0.231662 -0.377430
0.185000 23.130155 197.354658 -0.000000 0.407633 0.420092 -0.132732 61.309270 162.848285 -0.000000 0.136119 0.234397 -0.377480
0.190000 22.595421 197.221988 -0.000000 0.409116 0.417338 -0.132797 62.189061 161.676795 -0.000000 0.134837 0.237080 -0.377523
0.195000 21.877500 196.965770 -0.000000 0.410410 0.414659 -0.132746 62.911783 160.500856 -0.000000 0.133597 0.239794 -0.377534
0.200000 21.195845 196.572338 -0.000000 0.411889 0.411851 -0.132763 63.761600 159.245443 -0.000000 0.132408 0.242589 -0.377568
0.205000 20.234381 196.096854 -0.000000 0.413146 0.409112 -0.132752 64.561439 158.017190 -0.000000 0.131267 0.245310 -0.377614
0.210000 19.295791 195.531821 -0.000000 0.414220 0.406138 -0.132642 65.587056 156.722543 -0.000000 0.130176 0.248180 -0.377676
0.215000 18.212042 194.914041 -0.000000 0.415375 0.403325 -0.132557 66.687205 155.426805 -0.000000 0.129107 0.251052 -0.377671
0.220000 17.080781 194.241417 -0.000000 0.416392 0.400415 -0.132559 67.899542 154.114393 -0.000000 0.128078 0.253935 -0.377733
0.225000 15.888919 193.512420 -0.000000 0.417483 0.397570 -0.132577 69.169362 152.803162 -0.000000 0.127083 0.256819 -0.377725
0.230000 14.784949 192.715211 -0.000000 0.418429 0.394503 -0.132492 70.576707 151.445457 -0.000000 0.126186 0.259823 -0.377741
0.235000 13.549439 191.884704 -0.000000 0.419405 0.391556 -0.132535 71.920941 150.131274 -0.000000 0.125331 0.262763 -0.377754
